<svg xmlns="http://www.w3.org/2000/svg" width="263" height="47.552" viewBox="0 0 263 47.552">
  <g id="ic_logo" transform="translate(-345 -41)">
    <g id="Group_" transform="translate(410.109 55)">
      <path id="Path_2265" d="M193.494,346.417A1.494,1.494,0,0,1,192,344.923V325.242a1.489,1.489,0,0,1,.464-1.082,1.406,1.406,0,0,1,1.082-.464H198.8a11.334,11.334,0,0,1,5.822,1.443,10.257,10.257,0,0,1,3.967,4.019,12.2,12.2,0,0,1,1.443,5.822,11.69,11.69,0,0,1-1.443,5.873,10.258,10.258,0,0,1-3.967,4.019,11.607,11.607,0,0,1-5.822,1.443h-5.307Zm5.255-2.679a8.789,8.789,0,0,0,4.276-1.082,7.873,7.873,0,0,0,2.988-3.091,9.686,9.686,0,0,0,1.082-4.482,9.346,9.346,0,0,0-1.082-4.431,7.512,7.512,0,0,0-2.988-3.091,8.244,8.244,0,0,0-4.276-1.082h-3.761V343.79Z" transform="translate(-192 -323.693)" fill="#fff"/>
      <path id="Path_2266" d="M243.42,336.691a4.967,4.967,0,0,1,2.421.464,1.345,1.345,0,0,1,.876,1.185.634.634,0,0,1-.052.309,1.072,1.072,0,0,1-1.133.927,1.03,1.03,0,0,1-.412-.052,11.3,11.3,0,0,0-1.906-.206,5.219,5.219,0,0,0-3.349.979,3.092,3.092,0,0,0-1.288,2.576v8.4a1.618,1.618,0,0,1-.361,1.082,1.391,1.391,0,0,1-1.082.361,1.618,1.618,0,0,1-1.082-.361,1.458,1.458,0,0,1-.361-1.082V338.288a1.3,1.3,0,0,1,1.128-1.437h.314a1.242,1.242,0,0,1,1.432,1.03v1a6.135,6.135,0,0,1,2.164-1.6,5.152,5.152,0,0,1,2.679-.567Z" transform="translate(-213.177 -329.99)" fill="#fff"/>
      <path id="Path_2267" d="M267.162,352.821a8.479,8.479,0,0,1-4.173-1.03,7.27,7.27,0,0,1-2.834-2.885,9.171,9.171,0,0,1,0-8.346,7.486,7.486,0,0,1,2.834-2.834,7.841,7.841,0,0,1,4.173-1.03,7.728,7.728,0,0,1,6.9,3.864,8.867,8.867,0,0,1,0,8.346,7.656,7.656,0,0,1-2.834,2.885,7.475,7.475,0,0,1-4.07,1.03Zm0-2.576a4.684,4.684,0,0,0,2.628-.721,4.9,4.9,0,0,0,1.8-1.906,6.332,6.332,0,0,0,0-5.616,4.688,4.688,0,0,0-1.8-1.958,5.3,5.3,0,0,0-2.628-.721,5.008,5.008,0,0,0-2.679.721A5.245,5.245,0,0,0,262.628,342a6.331,6.331,0,0,0,0,5.616,5.069,5.069,0,0,0,1.855,1.906A5.565,5.565,0,0,0,267.162,350.245Z" transform="translate(-224.554 -329.994)" fill="#fff"/>
      <path id="Path_2268" d="M306.777,336.8a8.012,8.012,0,0,1,4.07,1.082,7.4,7.4,0,0,1,2.885,2.885,8.1,8.1,0,0,1,1.03,4.07,8.815,8.815,0,0,1-.979,4.122,7.588,7.588,0,0,1-2.679,2.885,7.372,7.372,0,0,1-3.761,1.03,7.213,7.213,0,0,1-5.616-2.628v7.831a1.4,1.4,0,0,1-1.288,1.494h-.16a1.412,1.412,0,0,1-1.494-1.324h0a.822.822,0,0,1,0-.16V344.836a8.284,8.284,0,0,1,1.03-4.122,7.729,7.729,0,0,1,2.885-2.885,7.991,7.991,0,0,1,4.07-1.03Zm0,13.5a5.044,5.044,0,0,0,4.482-2.679,5.91,5.91,0,0,0,0-5.564,5.044,5.044,0,0,0-4.482-2.679,5.1,5.1,0,0,0-4.482,2.679,6.218,6.218,0,0,0,0,5.564,5.58,5.58,0,0,0,1.855,1.958A5.3,5.3,0,0,0,306.777,350.3Z" transform="translate(-243.767 -330.046)" fill="#fff"/>
      <path id="Path_2269" d="M346.382,336.8a8.012,8.012,0,0,1,4.07,1.082,7.4,7.4,0,0,1,2.885,2.885,8.1,8.1,0,0,1,1.03,4.07,8.815,8.815,0,0,1-.979,4.122,7.588,7.588,0,0,1-2.679,2.885,7.445,7.445,0,0,1-6.9.361,7.054,7.054,0,0,1-2.473-1.958v7.831a1.427,1.427,0,0,1-1.288,1.494h-.155a1.412,1.412,0,0,1-1.494-1.324h0a.826.826,0,0,1,0-.16V344.837a8.285,8.285,0,0,1,1.03-4.122A7.955,7.955,0,0,1,346.382,336.8Zm0,13.5a5.044,5.044,0,0,0,4.482-2.679,5.915,5.915,0,0,0,0-5.564,5.106,5.106,0,0,0-6.919-2.061l-.191.108a4.688,4.688,0,0,0-1.8,1.958,6.218,6.218,0,0,0,0,5.564,4.869,4.869,0,0,0,4.431,2.679Z" transform="translate(-262.97 -330.047)" fill="#fff"/>
      <path id="Path_2270" d="M379.706,346.857a1.4,1.4,0,0,1-1.494-1.283h0V332.483a1.437,1.437,0,0,1,.412-1.082,1.675,1.675,0,0,1,1.082-.412,1.427,1.427,0,0,1,1.494,1.288v13.086a1.674,1.674,0,0,1-.412,1.082,1.437,1.437,0,0,1-1.082.412Zm0-18.444a1.891,1.891,0,0,1-1.906-1.855v-.052a1.937,1.937,0,0,1,1.906-1.906,2.009,2.009,0,0,1,1.906,1.906,1.783,1.783,0,0,1-.567,1.34A1.871,1.871,0,0,1,379.706,328.413Z" transform="translate(-282.074 -324.133)" fill="#fff"/>
      <path id="Path_2271" d="M402.99,336.7a7.449,7.449,0,0,1,3.606.876,6.091,6.091,0,0,1,2.525,2.576,8.146,8.146,0,0,1,.876,3.967v7.161a1.675,1.675,0,0,1-.412,1.082,1.546,1.546,0,0,1-1.03.412,1.4,1.4,0,0,1-1.494-1.283h0v-7.373a4.635,4.635,0,0,0-1.288-3.555,4.724,4.724,0,0,0-3.349-1.237,4.668,4.668,0,0,0-2.215.515,4.3,4.3,0,0,0-1.546,1.34,3.607,3.607,0,0,0-.567,1.906v8.192a1.412,1.412,0,0,1-1.324,1.494h0a.832.832,0,0,1-.16,0,1.4,1.4,0,0,1-1.494-1.283h0V338.344a1.437,1.437,0,0,1,.412-1.082,1.674,1.674,0,0,1,1.082-.412,1.4,1.4,0,0,1,1.494,1.283h0v.464a6.316,6.316,0,0,1,2.215-1.443A9.839,9.839,0,0,1,403,336.69Z" transform="translate(-290.469 -329.994)" fill="#fff"/>
      <path id="Path_2272" d="M439.936,336.8a7.728,7.728,0,0,1,6.9,3.864,7.934,7.934,0,0,1,1.03,4.173v6.286a9.125,9.125,0,0,1-1.03,4.173,7.8,7.8,0,0,1-7.007,4.07,9,9,0,0,1-3.864-.824,8.006,8.006,0,0,1-3.04-2.37,1.159,1.159,0,0,1-.309-.824,1.237,1.237,0,0,1,.618-1.03,1.515,1.515,0,0,1,.824-.258,1.386,1.386,0,0,1,1.185.618,5.259,5.259,0,0,0,1.958,1.546,6.753,6.753,0,0,0,2.679.567,4.518,4.518,0,0,0,2.576-.721,4.636,4.636,0,0,0,1.855-2.009,7.388,7.388,0,0,0,.721-3.143V349.47a7.007,7.007,0,0,1-2.37,2.524,5.94,5.94,0,0,1-3.349.876,7.882,7.882,0,0,1-3.864-1.03,7.063,7.063,0,0,1-2.628-2.885,9.654,9.654,0,0,1-.927-4.173,8.48,8.48,0,0,1,1.03-4.173,7.486,7.486,0,0,1,2.834-2.834A8.3,8.3,0,0,1,439.936,336.8Zm0,13.5a4.684,4.684,0,0,0,2.628-.721,4.9,4.9,0,0,0,1.8-1.906,6.332,6.332,0,0,0,0-5.616,4.688,4.688,0,0,0-1.8-1.958,5.3,5.3,0,0,0-2.628-.721,5.008,5.008,0,0,0-2.679.721,4.688,4.688,0,0,0-1.8,1.958,6.332,6.332,0,0,0,0,5.616,5.287,5.287,0,0,0,1.8,1.906A5.564,5.564,0,0,0,439.936,350.295Z" transform="translate(-308.301 -330.044)" fill="#fff"/>
      <path id="Path_2273" d="M473.694,346.42a1.494,1.494,0,0,1-1.494-1.494V325.245a1.489,1.489,0,0,1,.464-1.082,1.406,1.406,0,0,1,1.082-.464H480.7a8.062,8.062,0,0,1,3.452.773,5.7,5.7,0,0,1,3.194,5.255,4.586,4.586,0,0,1-.773,2.576,5.394,5.394,0,0,1-2.061,1.8,5.667,5.667,0,0,1,3.091,1.855,5.528,5.528,0,0,1,1.133,3.555,6.759,6.759,0,0,1-.979,3.555,6.275,6.275,0,0,1-2.628,2.421,8.3,8.3,0,0,1-3.813.876h-7.625Zm6.9-13.344a4.282,4.282,0,0,0,2.731-.824,3.349,3.349,0,0,0,.1-4.735h0l-.093-.093a3.983,3.983,0,0,0-2.731-.824h-5.42v6.528h5.41Zm.618,10.562a5.034,5.034,0,0,0,3.3-1.03,3.736,3.736,0,0,0,1.237-3.04,3.385,3.385,0,0,0-1.237-2.782,5.271,5.271,0,0,0-3.3-.979h-6.028v7.78Z" transform="translate(-327.839 -323.696)" fill="#fff"/>
      <path id="Path_2274" d="M525.042,336.9a1.4,1.4,0,0,1,1.494,1.283h0v13.086a1.412,1.412,0,0,1-1.324,1.494h-.17a1.427,1.427,0,0,1-1.494-1.288v-.464a6.389,6.389,0,0,1-2.215,1.443A7.986,7.986,0,0,1,515,352.09a6.27,6.27,0,0,1-2.524-2.525,8.357,8.357,0,0,1-.876-4.019V338.39a1.546,1.546,0,0,1,.412-1.03,1.2,1.2,0,0,1,1.082-.412,1.494,1.494,0,0,1,1.494,1.494h0V345.6a4.223,4.223,0,0,0,4.585,4.74,4.858,4.858,0,0,0,2.216-.515,3.883,3.883,0,0,0,1.546-1.34,3.606,3.606,0,0,0,.567-1.906V338.39a1.675,1.675,0,0,1,.412-1.082A1.9,1.9,0,0,1,525.042,336.9Z" transform="translate(-346.935 -330.092)" fill="#fff"/>
      <path id="Path_2275" d="M560.726,337.1a1.221,1.221,0,0,1,.927,1.133,1.839,1.839,0,0,1-.154.721l-8.862,19.99a1.2,1.2,0,0,1-1.133.876,1.438,1.438,0,0,1-.67-.155,1.2,1.2,0,0,1-.876-1.133,1.834,1.834,0,0,1,.155-.721L553,351.271l-6.543-12.416a1.357,1.357,0,0,1-.154-.618,1.222,1.222,0,0,1,.258-.721,1.5,1.5,0,0,1,.618-.515,1.124,1.124,0,0,1,.567-.1,1.334,1.334,0,0,1,1.237.824l5.307,10.613,4.688-10.562a1.154,1.154,0,0,1,1.134-.824A1.85,1.85,0,0,1,560.726,337.1Z" transform="translate(-363.762 -330.092)" fill="#fff"/>
    </g>
    <path id="Path_2276" d="M369.644,194.374h-.823l-.563.043-.606.043c-.173,0-.433.043-.563.043l-.52.087-.563.087-.606.13-.65.173a4.227,4.227,0,0,0-.563.173l-.39.13-.39.13-.477.217c-.191.078-.381.165-.563.26l-.52.26-.433.217c-.087.043-.3.217-.433.3a3.7,3.7,0,0,0-.433.3l-.39.3a1.857,1.857,0,0,1-.347.26,2.6,2.6,0,0,0-.347.347l-.433.433c-.13.13-.3.347-.433.477s-.26.347-.39.476a3.734,3.734,0,0,0-.346.52,3.7,3.7,0,0,1-.3.433,1.232,1.232,0,0,0-.217.39c-.043.13-.173.3-.217.433l-.13.26h-.477l-.65.043-.65.043-.65.087-.606.087-.563.087-.52.13-.477.13-.606.173a6.43,6.43,0,0,0-.693.217l-.606.217-.433.173-.476.173-.52.217-.693.347-.65.347-.477.26-.52.3-.563.39-.477.347-.433.3c-.13.087-.347.26-.476.347l-.433.347a4.532,4.532,0,0,0-.477.433c-.13.13-.476.477-.78.736s-.606.606-.736.736a6.55,6.55,0,0,0-.477.563l-.476.606c-.13.173-.3.39-.39.52s-.26.347-.347.476-.217.347-.3.476a3.742,3.742,0,0,1-.347.52,4.181,4.181,0,0,0-.347.563c-.087.13-.26.477-.39.693s-.26.563-.347.693-.173.433-.26.606-.173.477-.26.693a5.488,5.488,0,0,0-.26.78c-.043.217-.173.52-.217.736s-.13.52-.173.693-.087.433-.13.606a2,2,0,0,0-.087.477c-.043.13-.043.347-.087.476s-.043.39-.087.563a3.605,3.605,0,0,1-.087.65c0,.217-.043.52-.043.693s-.043.563-.043.866v1.04c0,.3.043.693.043.866s.043.433.043.563.043.347.043.477.043.347.043.477a2.6,2.6,0,0,0,.087.52c.043.173.087.433.13.606s.13.52.173.736.13.563.173.736.13.433.173.606.173.476.217.693a3.342,3.342,0,0,0,.26.693c.087.173.173.476.26.65s.26.52.39.823.347.65.39.78a2.891,2.891,0,0,0,.347.606c.13.173.347.52.476.736s.347.52.477.693.3.433.433.606a5.514,5.514,0,0,0,.433.52c.13.13.3.347.433.476s.346.39.52.563l.606.606.477.433.433.347.52.433.563.433.52.39.563.347a4.246,4.246,0,0,1,.606.39c.173.13.433.26.65.39s.52.3.78.433.606.3.823.39a5.985,5.985,0,0,0,.65.26l.563.217.606.217.693.217.606.173.65.173.736.13.736.13.65.087.65.043.78.043h1.559l.693-.043.65-.043.606-.087.606-.087.65-.13.65-.13.606-.13c.173-.043.433-.13.606-.173l.606-.173c.173-.043.433-.173.606-.217l.65-.26.52-.217q.264-.117.52-.26c.173-.087.477-.217.65-.3s.433-.217.563-.3l.52-.3a4.25,4.25,0,0,0,.606-.39l.563-.39c.13-.087.347-.26.477-.347a3.693,3.693,0,0,0,.433-.347l.433-.347a3.346,3.346,0,0,0,.433-.39c.13-.13.39-.347.563-.52l.693-.693c.217-.217.39-.433.52-.563s.26-.347.39-.477l.433-.563c.13-.173.3-.39.39-.52s.26-.39.39-.606.3-.477.433-.65.26-.433.347-.563.217-.39.3-.52.217-.433.347-.65a5.714,5.714,0,0,0,.347-.736c.1-.2.182-.4.26-.606l.217-.52.173-.52a5.044,5.044,0,0,1,.217-.606c.087-.173.13-.433.173-.52a5.066,5.066,0,0,0,.13-.52c.043-.173.087-.433.13-.65s.087-.477.13-.65.087-.52.13-.736a3.656,3.656,0,0,0,.087-.65c0-.173.043-.433.043-.563s.043-.39.043-.563v-1.863c0-.26-.043-.606-.043-.736s-.043-.433-.043-.563-.043-.347-.043-.477a2.1,2.1,0,0,0-.087-.52,2.526,2.526,0,0,1-.087-.65,2.543,2.543,0,0,0-.173-.78c-.087-.217-.13-.52-.173-.65s-.13-.39-.173-.563a5.723,5.723,0,0,0-.217-.65,5.046,5.046,0,0,1-.217-.606,2.961,2.961,0,0,0-.217-.563,4.536,4.536,0,0,1-.217-.52l-.217-.433c-.043-.13-.173-.347-.217-.477s-.217-.39-.3-.563-.26-.477-.347-.65-.26-.433-.347-.606a4.25,4.25,0,0,0-.39-.606,4.249,4.249,0,0,1-.39-.606l-.39-.52a3.743,3.743,0,0,0-.39-.476,3.748,3.748,0,0,1-.39-.477,4.522,4.522,0,0,0-.433-.476,8.017,8.017,0,0,0-.607-.606c-.217-.173-.476-.433-.606-.563a3.741,3.741,0,0,0-.476-.39,4.521,4.521,0,0,1-.477-.433,6.063,6.063,0,0,0-.563-.433c-.173-.13-.39-.26-.476-.347l-.433-.3-.3-.173s0-.043.13-.217a3.7,3.7,0,0,1,.3-.433l.26-.433c.043-.13.217-.39.3-.563l.26-.52.173-.347c.065-.143.121-.286.173-.433s.173-.39.217-.52l.173-.52c.043-.13.13-.39.173-.563s.13-.433.173-.606.087-.39.13-.52l.087-.39a1.694,1.694,0,0,1,.087-.39c.043-.13.043-.3.087-.433s.043-.3.087-.433.043-.39.087-.606a3.641,3.641,0,0,0,.043-.65v-.433c0-.087-.043-.173-.043-.26a1.908,1.908,0,0,0-.217-.39l-.173-.173a.8.8,0,0,0-.433-.173,1.642,1.642,0,0,0-.65,0Zm-.91,2.339h0a1.479,1.479,0,0,1-.043.39c-.043.173-.087.476-.13.65a4.259,4.259,0,0,1-.173.693,4.222,4.222,0,0,0-.173.606c-.043.13-.13.433-.173.606s-.173.477-.217.606a2.49,2.49,0,0,1-.217.52c-.087.13-.13.347-.217.433l-.217.433a4.05,4.05,0,0,0-.217.433c-.043.087-.173.26-.217.347s-.173.3-.26.433l-.347.52c-.087.087-.173.217-.26.3s-.13.087-.173.13a.568.568,0,0,0-.13.173c-.043.043-.087.13-.13.173a1.227,1.227,0,0,1-.3.347,4.526,4.526,0,0,1-.477.433,4.609,4.609,0,0,1-.477.347,4.606,4.606,0,0,0-.477.347c-.13.087-.3.173-.433.26a4.267,4.267,0,0,1-.39.217,4.04,4.04,0,0,1-.433.217l-.477.173-.433.13-.3.087-.3.087-.39.087-.433.087-.433.043-.476.043c-.13,0-.477.043-.78.043h-.52v-.563c0-.13.043-.3.043-.433s.043-.347.043-.52a1.919,1.919,0,0,1,.087-.52,2.106,2.106,0,0,0,.087-.52,3.125,3.125,0,0,1,.13-.563c.043-.173.13-.433.173-.606a3.375,3.375,0,0,1,.217-.606,4.532,4.532,0,0,0,.217-.52c.043-.13.173-.347.217-.477s.217-.347.26-.477a2.089,2.089,0,0,1,.26-.433c.087-.13.217-.3.3-.433s.217-.26.26-.347a2.278,2.278,0,0,1,.347-.39l.433-.433a2.1,2.1,0,0,1,.347-.3c.087-.043.217-.173.347-.26a2.935,2.935,0,0,0,.39-.3l.39-.26.433-.26c.13-.087.347-.173.477-.26l.52-.217.433-.173.3-.087.39-.13c.13-.043.347-.087.52-.13s.433-.087.606-.13l.563-.087.476-.087.606-.043.563-.043h.217Zm-12.649,6.931c.043,0,.087,0,.043.043s-.043.173-.087.3a2.253,2.253,0,0,0-.087.476,2.974,2.974,0,0,1-.087.477c-.043.173-.043.39-.087.476a1.73,1.73,0,0,0-.043.52c0,.173-.043.433-.043.563v1.949c0,.087.043.173.043.26a.991.991,0,0,0,.13.217.338.338,0,0,0,.173.173c.043.043.13.087.173.13a.329.329,0,0,0,.173.087.273.273,0,0,0,.173.043,1.46,1.46,0,0,0,.433.043c.26,0,.52.043,1.17.043a7.548,7.548,0,0,0,1.17-.043c.173,0,.433-.043.52-.043s.3-.043.433-.043l.39-.043a1.693,1.693,0,0,0,.39-.087c.13-.043.3-.043.433-.087l.433-.13.52-.173a2.4,2.4,0,0,0,.563-.217l.433-.173.39-.173.477-.26.433-.26.39-.26.433-.3c.13-.087.26-.217.347-.26a1.581,1.581,0,0,0,.3-.26,2.313,2.313,0,0,1,.347-.3l.217-.173.043-.043.173.13a4.7,4.7,0,0,1,.52.347c.173.13.433.3.606.433l.52.39.433.347c.087.087.3.26.433.39a7.666,7.666,0,0,1,.65.65,7.661,7.661,0,0,0,.65.65c.13.13.26.3.39.433a2.6,2.6,0,0,1,.3.39,3.035,3.035,0,0,0,.346.433,5.806,5.806,0,0,1,.39.52c.13.173.26.39.347.52a5.952,5.952,0,0,1,.3.52c.091.178.217.39.3.563s.26.476.39.736.26.563.346.736a4.528,4.528,0,0,1,.217.52,4.208,4.208,0,0,1,.217.606c.043.217.173.477.217.65s.13.39.173.52a6.5,6.5,0,0,1,.173.65c.043.217.13.563.173.693a2.6,2.6,0,0,1,.087.52c0,.087.043.3.043.39s.043.26.043.347.043.3.043.477.043.476.043.65c0,.26.043.563.043,1.126v1.04c0,.173-.043.433-.043.563s-.043.347-.043.476-.043.347-.043.477a3.107,3.107,0,0,1-.087.563c-.043.173-.087.433-.13.606s-.087.433-.13.563-.13.433-.173.606a3.811,3.811,0,0,1-.217.65,5.051,5.051,0,0,0-.217.606,2.487,2.487,0,0,1-.217.52,2.406,2.406,0,0,0-.217.563,6.538,6.538,0,0,1-.39.78c-.13.26-.347.65-.433.866s-.3.477-.39.65a4.248,4.248,0,0,1-.39.606c-.13.173-.3.433-.433.606a4.985,4.985,0,0,0-.433.606l-.39.477c-.087.13-.347.347-.52.563s-.433.476-.606.65-.433.39-.563.52-.347.3-.477.433l-.433.347-.477.347-.52.347-.477.3-.477.3-.52.3-.606.3c-.173.087-.477.217-.65.3a5.2,5.2,0,0,1-.563.217c-.13.043-.39.173-.563.217s-.433.173-.606.217-.39.13-.52.173l-.52.13-.65.173c-.173.043-.52.087-.693.13l-.606.087-.52.043-.606.043c-.173,0-.52.043-.823.043h-.953l-.823-.043-.563-.043-.39-.043c-.087,0-.26-.043-.39-.043l-.39-.043-.433-.087-.433-.087-.563-.13-.65-.173c-.173-.043-.433-.13-.606-.173s-.39-.13-.52-.173a5.2,5.2,0,0,1-.563-.217l-.563-.217-.563-.26-.65-.347-.65-.39c-.217-.13-.477-.3-.65-.39a5.013,5.013,0,0,1-.563-.39l-.476-.347a3.7,3.7,0,0,1-.433-.347l-.39-.347c-.087-.087-.3-.26-.433-.39s-.39-.39-.606-.563a4.943,4.943,0,0,1-.476-.476l-.3-.347-.39-.476a6.067,6.067,0,0,1-.433-.563,5.016,5.016,0,0,1-.39-.563,4.6,4.6,0,0,0-.347-.476c-.087-.13-.217-.347-.3-.476s-.217-.347-.3-.477-.217-.39-.3-.563-.217-.433-.3-.65-.173-.433-.217-.52l-.13-.3-.173-.433c-.043-.173-.173-.476-.217-.65s-.13-.433-.173-.606-.087-.39-.13-.52-.087-.39-.13-.563-.087-.433-.13-.606a2.884,2.884,0,0,1-.087-.606,3.256,3.256,0,0,0-.087-.65,3.279,3.279,0,0,1-.043-.65c0-.173-.043-.52-.043-.823v-1c0-.26.043-.65.043-.823s.043-.39.043-.477.043-.26.043-.433a1.918,1.918,0,0,1,.087-.52c.043-.13.043-.347.087-.477s.043-.347.087-.476.087-.39.13-.563.087-.433.13-.563l.173-.52a5.049,5.049,0,0,1,.217-.606c.087-.173.173-.476.26-.65s.173-.433.26-.606.217-.52.346-.78.3-.606.433-.823l.347-.563.3-.476a4.521,4.521,0,0,1,.39-.52c.13-.13.26-.39.39-.52s.26-.347.346-.433a5.842,5.842,0,0,0,.39-.477,5.8,5.8,0,0,1,.52-.563l.563-.563.476-.433.433-.39a4.519,4.519,0,0,1,.52-.39c.13-.087.347-.26.477-.347s.347-.26.477-.347l.563-.347.563-.347c.173-.087.39-.217.563-.3l.433-.3a2.915,2.915,0,0,0,.52-.26c.13-.087.433-.173.606-.26s.433-.173.65-.26a6.411,6.411,0,0,1,.693-.217l.52-.173a5.058,5.058,0,0,1,.52-.13c.173-.043.433-.087.606-.13l.606-.13.65-.087.563-.087.346-.043Zm13.6,15.768h-.3l-.173.043-.13.043c-.043.043-.13.043-.173.087a.763.763,0,0,0-.217.173l-.173.173c-.043.087-.087.13-.13.217a.615.615,0,0,0-.087.26,1.188,1.188,0,0,0-.043.39.867.867,0,0,0,.043.347c.043.087.043.173.087.217a.99.99,0,0,1,.13.217.762.762,0,0,0,.173.217.933.933,0,0,0,.217.173c.087.043.13.087.217.13a.615.615,0,0,0,.26.087.719.719,0,0,0,.3.043h.3l.217-.043c.087-.043.13-.043.173-.087a.568.568,0,0,0,.173-.13c.043-.043.13-.087.173-.173a.567.567,0,0,1,.13-.173.3.3,0,0,0,.087-.217c.043-.087.043-.173.087-.26a1.727,1.727,0,0,1,.043-.217v-.26c0-.087-.043-.217-.043-.3l-.13-.26c-.043-.087-.087-.13-.13-.217l-.173-.173a.433.433,0,0,1-.217-.173.615.615,0,0,0-.26-.087,1.619,1.619,0,0,0-.433-.043Zm-5.631,1.949h-.26c-.087,0-.13.043-.217.043a.3.3,0,0,0-.217.087.94.94,0,0,0-.26.173,1.733,1.733,0,0,0-.346.433c-.043.087-.087.13-.087.217a.532.532,0,0,0-.043.26v.433c0,.087.043.173.043.26s.043.13.087.217.087.13.13.217l.217.217c.087.043.173.13.26.173a.615.615,0,0,0,.26.087c.087,0,.173.043.26.043h.3c.087,0,.173-.043.26-.043s.13-.043.217-.087.13-.087.217-.13.13-.13.217-.173.087-.173.13-.217a.616.616,0,0,0,.087-.26.533.533,0,0,0,.043-.26v-.26a.533.533,0,0,0-.043-.26.433.433,0,0,0-.087-.217c-.043-.087-.087-.13-.13-.217s-.13-.13-.173-.217a.433.433,0,0,0-.217-.173c-.087-.043-.13-.087-.217-.13s-.13-.043-.217-.087C364.273,221.4,364.143,221.4,364.057,221.361Zm4.765,3.855h-.173c-.087,0-.173.043-.26.043l-.26.13c-.087.043-.13.087-.217.13l-.173.173c-.043.043-.087.13-.13.173a.733.733,0,0,1-.087.217c-.043.087-.043.173-.087.26a.654.654,0,0,0-.043.3.533.533,0,0,0,.043.26,1.728,1.728,0,0,0,.043.217,2,2,0,0,0,.3.433c.087.087.173.13.26.217a.528.528,0,0,0,.217.13l.217.087a2.452,2.452,0,0,0,.563.043c.087,0,.173-.043.26-.043l.26-.13c.087-.043.173-.13.26-.173l.217-.217c.043-.043.087-.13.13-.173s.043-.13.087-.173a1.738,1.738,0,0,0,.043-.217v-.26a.9.9,0,0,0-.043-.3.3.3,0,0,0-.087-.217,2,2,0,0,0-.3-.433c-.087-.043-.13-.13-.217-.173a.329.329,0,0,0-.173-.087c-.043-.043-.13-.043-.217-.087a.533.533,0,0,0-.26-.043.177.177,0,0,0-.173-.087Z" transform="translate(7.801 -153.125)" fill="#fff"/>
  </g>
</svg>
